<?xml version="1.0" encoding="UTF-8" standalone="no"?>
<!DOCTYPE svg PUBLIC "-//W3C//DTD SVG 1.1//EN" "http://www.w3.org/Graphics/SVG/1.1/DTD/svg11.dtd">
<svg width="100%" height="100%" viewBox="0 0 2500 2500" version="1.1" xmlns="http://www.w3.org/2000/svg" xmlns:xlink="http://www.w3.org/1999/xlink" xml:space="preserve" xmlns:serif="http://www.serif.com/" style="fill-rule:evenodd;clip-rule:evenodd;stroke-linejoin:round;stroke-miterlimit:2;">
    <path d="M468.479,444.905C545.836,507.754 574.856,502.959 720.122,493.266L2089.6,411.036C2118.64,411.036 2094.49,382.06 2084.8,377.245L1857.36,212.823C1813.78,178.988 1755.72,140.241 1644.44,149.934L318.378,246.653C270.016,251.448 260.358,275.629 279.616,295.01L468.479,444.905ZM550.7,764.061L550.7,2204.99C550.7,2282.43 589.398,2311.4 676.497,2306.61L2181.55,2219.52C2268.69,2214.73 2278.4,2161.46 2278.4,2098.55L2278.4,667.298C2278.4,604.492 2254.24,570.624 2200.89,575.458L628.101,667.298C570.056,672.176 550.695,701.211 550.695,764.061L550.7,764.061ZM2036.48,841.354C2046.13,884.916 2036.48,928.439 1992.84,933.337L1920.32,947.786L1920.32,2011.57C1857.36,2045.41 1799.3,2064.75 1750.92,2064.75C1673.46,2064.75 1654.06,2040.56 1596.04,1968.07L1121.7,1223.41L1121.7,1943.89L1271.8,1977.76C1271.8,1977.76 1271.8,2064.75 1150.7,2064.75L816.856,2084.12C807.158,2064.75 816.856,2016.44 850.72,2006.76L937.838,1982.62L937.838,1030.01L816.88,1020.32C807.177,976.757 831.339,913.946 899.14,909.073L1257.28,884.931L1750.92,1639.28L1750.92,971.962L1625.06,957.518C1615.4,904.263 1654.06,865.594 1702.46,860.799L2036.48,841.354ZM207.04,116.104L1586.36,14.527C1755.74,0 1799.32,9.732 1905.78,87.065L2346.08,396.528C2418.73,449.744 2442.94,464.232 2442.94,522.242L2442.94,2219.52C2442.94,2325.89 2404.19,2388.8 2268.72,2398.42L666.912,2495.15C565.212,2500 516.811,2485.51 463.552,2417.77L139.312,1997.09C81.218,1919.64 57.056,1861.71 57.056,1793.93L57.056,285.282C57.056,198.296 95.818,125.734 207.04,116.104Z" style="fill-opacity:0.54;"/>
</svg>
