<?xml version="1.0" standalone="no"?>
<!DOCTYPE svg PUBLIC "-//W3C//DTD SVG 20010904//EN"
 "http://www.w3.org/TR/2001/REC-SVG-20010904/DTD/svg10.dtd">
<svg version="1.0" xmlns="http://www.w3.org/2000/svg"
 width="1596.000000pt" height="1596.000000pt" viewBox="0 0 1596.000000 1596.000000"
 preserveAspectRatio="xMidYMid meet">
<metadata>
Created by potrace 1.14, written by Peter Selinger 2001-2017
</metadata>
<g transform="translate(0.000000,1596.000000) scale(0.100000,-0.100000)"
fill="#000000" stroke="none">
<path d="M11800 15884 c-157 -41 -430 -111 -608 -156 l-323 -81 -127 -95
c-216 -160 -480 -355 -782 -577 -96 -71 -247 -182 -335 -247 -88 -65 -215
-159 -283 -208 l-122 -91 -898 6 -897 6 -675 -246 -675 -247 -455 7 -455 7
-75 67 c-41 37 -187 166 -325 286 -137 121 -255 224 -261 230 -6 5 -39 35 -74
65 -35 30 -68 60 -74 65 -6 6 -47 41 -91 80 -44 38 -85 74 -91 80 -6 5 -40 35
-75 66 -35 31 -185 163 -333 293 -147 130 -273 236 -280 237 -6 0 -20 2 -31 4
-10 2 -64 7 -120 11 -55 3 -102 8 -105 9 -3 2 -50 6 -105 10 -55 4 -111 8
-125 10 -14 2 -83 9 -155 15 -71 5 -150 12 -175 15 -25 3 -72 7 -105 10 -33 3
-85 7 -115 10 -344 33 -495 44 -502 37 -4 -4 -10 -207 -13 -452 -3 -245 -8
-521 -11 -615 -3 -93 -5 -177 -5 -185 0 -209 -1 -351 -4 -460 -1 -74 -4 -249
-4 -388 l-2 -253 34 -62 c19 -34 50 -91 69 -127 42 -78 497 -920 543 -1005 33
-60 101 -187 243 -450 41 -77 114 -212 162 -300 48 -88 111 -205 140 -260 29
-55 56 -104 60 -110 4 -5 37 -66 73 -135 66 -126 75 -151 248 -705 28 -88 79
-250 114 -360 35 -110 75 -238 90 -285 14 -47 65 -206 112 -355 47 -148 93
-297 103 -330 16 -52 98 -313 190 -600 118 -372 293 -932 293 -940 0 -6 -66
-156 -147 -335 -82 -179 -158 -347 -171 -375 -49 -109 -230 -504 -262 -575
-19 -41 -63 -138 -98 -215 -35 -77 -76 -169 -93 -205 -62 -137 -150 -330 -482
-1060 l-256 -565 -18 -250 c-10 -137 -19 -263 -21 -280 -2 -16 -7 -77 -10
-135 -3 -58 -8 -123 -10 -145 -2 -22 -7 -76 -10 -120 -3 -44 -7 -109 -10 -145
-3 -36 -7 -101 -10 -145 -3 -44 -10 -134 -15 -200 -5 -66 -14 -187 -20 -269
l-11 -149 24 -26 c13 -14 111 -138 217 -276 106 -137 200 -256 208 -263 9 -7
30 -16 47 -21 16 -5 613 -205 1325 -444 712 -239 1517 -509 1787 -600 442
-149 502 -166 580 -172 49 -3 102 -8 118 -10 17 -2 64 -6 105 -9 254 -20 582
-47 625 -51 28 -2 86 -7 130 -10 44 -3 100 -8 125 -10 25 -3 74 -7 110 -10
187 -15 322 -26 385 -30 39 -3 90 -8 115 -10 25 -2 77 -7 115 -10 39 -3 207
-17 375 -30 l305 -25 430 124 c806 233 2230 647 2329 676 54 17 105 30 113 30
13 0 708 576 805 666 39 37 47 50 43 72 -3 15 -41 320 -85 677 -44 358 -83
664 -85 681 -4 31 -53 420 -60 484 -4 35 -90 722 -166 1325 l-41 330 32 135
c33 138 145 593 320 1305 l98 400 167 370 c164 367 166 372 215 570 26 110
112 463 190 785 78 322 166 686 196 810 30 124 70 291 89 371 l35 147 -186
483 c-102 266 -198 516 -213 554 -15 39 -139 363 -277 720 l-249 650 -120 101
c-66 56 -228 192 -360 304 -132 112 -275 232 -318 268 l-77 64 5 57 c2 31 7
108 10 171 3 63 8 153 10 200 5 88 21 393 30 585 3 61 8 137 10 170 2 33 7
128 11 210 l6 150 -106 620 c-58 341 -110 633 -114 650 -4 16 -14 30 -22 31
-8 1 -143 -32 -300 -72z"/>
</g>
</svg>
