<svg width="100%" height="100%" viewBox="0 0 512 512" version="1.1" xmlns="http://www.w3.org/2000/svg" xmlns:xlink="http://www.w3.org/1999/xlink" xml:space="preserve" xmlns:serif="http://www.serif.com/" style="fill-rule:evenodd;clip-rule:evenodd;stroke-linejoin:round;stroke-miterlimit:2;">
    <path d="M201.856,198.528L187.093,240.149L216.597,240.149L201.856,198.528Z" style="fill-opacity:0.54;fill-rule:nonzero;"/>
    <path d="M256,21.333C114.624,21.333 0,111.104 0,221.845C0,293.44 47.915,356.267 120,391.723C92.288,486.656 91.563,487.083 96.256,489.835C102.144,493.269 109.781,489.728 210.539,419.2C225.301,421.269 240.491,422.357 256,422.357C397.376,422.357 512,332.587 512,221.845C512,111.104 397.376,21.333 256,21.333ZM129.237,277.824C129.237,285.547 122.603,291.84 114.475,291.84C106.347,291.84 99.712,285.547 99.712,277.824L99.712,190.656L76.672,190.656C68.672,190.656 62.187,184.213 62.187,176.299C62.187,168.384 68.651,161.92 76.651,161.92L152.277,161.92C160.277,161.92 166.763,168.363 166.763,176.277C166.763,184.192 160.256,190.656 152.277,190.656L129.237,190.656L129.237,277.824ZM243.968,291.648C228.608,291.648 231.445,279.595 224.363,266.155L179.328,266.155C172.309,279.488 175.061,291.648 159.723,291.648C144.939,291.669 142.336,282.667 146.837,268.8L182.165,176.427C184.661,169.387 192.213,162.155 201.835,161.941C211.477,162.155 219.051,169.387 221.525,176.427C244.843,248.747 278.144,291.669 243.968,291.648ZM328,289.685L280.619,289.685C255.893,289.685 270.933,256.299 266.475,176.597C266.475,168.512 273.237,161.92 281.557,161.92C289.877,161.92 296.64,168.491 296.64,176.597L296.64,262.784L328.021,262.784C335.829,262.784 342.165,268.821 342.165,276.224C342.144,283.648 335.808,289.685 328,289.685ZM443.605,278.635C443.072,282.496 441.003,285.973 437.867,288.32C417.493,303.701 402.432,258.859 382.549,239.872L377.429,244.971L377.429,276.971C377.429,285.077 370.816,291.648 362.645,291.648C354.496,291.648 347.883,285.077 347.883,276.971L347.883,176.597C347.883,168.512 354.496,161.92 362.645,161.92C370.795,161.92 377.408,168.491 377.408,176.597L377.408,208.128C404.651,187.691 419.755,151.168 436.971,168.256C453.867,185.024 418.88,199.701 404.395,219.925C438.613,267.115 445.12,268.288 443.605,278.635Z" style="fill-opacity:0.54;fill-rule:nonzero;"/>
</svg>
